Coordinates
version=1
nRows=10
nColumns=40
inDegrees=yes

Units are S.I. units (second, meters, Newtons, ...)
Angles are in degrees.

endheader
time	pelvis_tilt	pelvis_list	pelvis_rotation	pelvis_tx	pelvis_ty	pelvis_tz	hip_flexion_r	hip_adduction_r	hip_rotation_r	knee_angle_r	knee_angle_r_beta	ankle_angle_r	subtalar_angle_r	mtp_angle_r	hip_flexion_l	hip_adduction_l	hip_rotation_l	knee_angle_l	knee_angle_l_beta	ankle_angle_l	subtalar_angle_l	mtp_angle_l	lumbar_extension	lumbar_bending	lumbar_rotation	arm_flex_r	arm_add_r	arm_rot_r	elbow_flex_r	pro_sup_r	wrist_flex_r	wrist_dev_r	arm_flex_l	arm_add_l	arm_rot_l	elbow_flex_l	pro_sup_l	wrist_flex_l	wrist_dev_l
     47.97250000	     -2.16948648	     -5.88195600	     -1.91211158	      1.05785256	      0.93026376	      0.47448350	     14.28540363	      2.99988493	    -12.02499091	     18.25521423	     18.25521423	      8.20575219	      2.40211004	     -3.36507369	      6.56471037	    -14.44370610	     -9.79962832	     36.99643835	     36.99643835	     13.11668149	    -14.30470719	     -4.21345742	     -8.40936968	      6.58944775	      1.17092407	      4.79847471	    -13.10997219	     -4.83707582	     35.08559416	     45.93061025	      0.00000000	      0.00000000	     15.69728041	    -14.30975094	     -9.26751543	     53.14796445	     46.72436044	      0.00000000	      0.00000000
     47.98571429	     -2.07810987	     -5.76833312	     -1.49378799	      1.05842575	      0.93072946	      0.47682063	     13.67434053	      2.90843949	    -12.70217283	     18.11990552	     18.11990552	      8.62560183	      3.10125841	     -3.47624831	      8.40157826	    -14.69714893	     -8.37460492	     40.61615703	     40.61615703	     11.56555715	    -15.73659968	     -4.08353594	     -8.29166237	      6.51115946	      0.94665402	      6.46738506	    -13.53348704	     -4.91907046	     36.47787342	     45.89052226	      0.00000000	      0.00000000	     15.14631062	    -13.92413180	     -9.00909654	     49.57479847	     46.65943401	      0.00000000	      0.00000000
     47.99892857	     -1.88058173	     -5.88892971	     -1.08115296	      1.05872039	      0.93114402	      0.47916340	     12.89198925	      3.15525793	    -13.16610040	     17.83485022	     17.83485022	      8.92347132	      3.32319978	     -3.50227371	     10.25321463	    -15.24901588	     -7.09700598	     44.32537187	     44.32537187	     10.16679119	    -16.50795428	     -3.93347536	     -8.46445535	      6.63296164	      1.22195233	      8.13579666	    -14.19475282	     -5.04804855	     37.37021687	     45.87480964	      0.00000000	      0.00000000	     14.22801348	    -13.32381628	     -8.77020103	     48.24073861	     46.61427598	      0.00000000	      0.00000000
     48.01214286	     -1.80529073	     -5.82439904	     -0.62898214	      1.05864979	      0.93135655	      0.48101912	     12.33806348	      3.11596905	    -13.78889318	     17.70547215	     17.70547215	      9.27848375	      3.87289944	     -3.58817951	     12.42566715	    -15.35168545	     -5.52971851	     48.14460421	     48.14460421	     10.10840204	    -16.78117086	     -0.20940481	     -8.41270408	      6.61536968	      1.74504533	      9.04783422	    -15.16018003	     -4.68056632	     39.86763888	     45.75891749	      0.00000000	      0.00000000	     14.81743398	    -12.50891865	     -8.20609787	     42.98136709	     46.51449038	      0.00000000	      0.00000000
     48.02535714	     -1.71879616	     -5.86468037	     -0.17845515	      1.05833878	      0.93142943	      0.48275871	     11.77554655	      3.23844996	    -14.23082121	     17.52968887	     17.52968887	      9.58028918	      4.06165415	     -3.69687462	     14.56263833	    -15.49892242	     -4.03810257	     51.63513532	     51.63513532	      9.83045804	    -16.95700411	      2.55996693	     -8.48940016	      6.69025055	      1.96600452	     10.42664468	    -15.99086112	     -4.61749332	     41.86453464	     45.68701991	      0.00000000	      0.00000000	     14.22548027	    -11.99108793	     -7.70596735	     40.51200582	     46.42703846	      0.00000000	      0.00000000
     48.03857143	     -1.51385308	     -5.93164383	      0.23959496	      1.05789070	      0.93163696	      0.48435617	     11.12887012	      3.40332183	    -14.56940580	     17.40477324	     17.40477324	      9.82174510	      4.03873059	     -3.73713288	     16.36780008	    -15.66402358	     -2.82095943	     54.46765316	     54.46765316	      8.76990542	    -17.22802810	      2.73863436	     -8.76041127	      6.80255779	      2.15558747	     12.32712484	    -16.71681736	     -4.83754105	     42.81225246	     45.67516346	      0.00000000	      0.00000000	     13.09625657	    -11.53137243	     -7.52261207	     39.56683838	     46.38565223	      0.00000000	      0.00000000
     48.05178571	     -1.47487341	     -6.00420693	      0.69369221	      1.05722472	      0.93161733	      0.48578133	     10.65055408	      3.57852049	    -14.90047175	     17.22495482	     17.22495482	     10.09139418	      4.01767369	     -3.80268718	     18.34002709	    -15.72143669	     -1.58183039	     56.91355034	     56.91355034	      8.04944204	    -17.40410738	      3.19537878	     -8.84288029	      6.90595468	      2.06062361	     14.28906454	    -17.30342026	     -5.00720629	     44.04885365	     45.64971058	      0.00000000	      0.00000000	     11.89273516	    -11.19543097	     -7.30267195	     38.17978338	     46.33686186	      0.00000000	      0.00000000
     48.06500000	     -1.43505739	     -6.02503769	      1.11069250	      1.05640975	      0.93167308	      0.48705178	     10.18742919	      3.70051311	    -15.18451561	     17.03899885	     17.03899885	     10.33024859	      3.95851807	     -3.87002664	     20.19515049	    -15.67668235	     -0.52864799	     58.84889664	     58.84889664	      7.67183937	    -17.41956436	      3.83854779	     -8.93011025	      6.98204647	      1.96128796	     16.19868108	    -17.81564176	     -5.10604916	     45.44039809	     45.61448958	      0.00000000	      0.00000000	     10.72537634	    -10.89897500	     -7.06447382	     36.58363348	     46.28548543	      0.00000000	      0.00000000
     48.07821429	     -1.39512088	     -5.89108297	      1.50354315	      1.05559705	      0.93185942	      0.48812936	      9.69445307	      3.66288048	    -15.35372768	     16.79645838	     16.79645838	     10.45736875	      3.85716620	     -4.21023528	     22.01346769	    -15.38873359	      0.38294692	     60.47730628	     60.47730628	      8.90657467	    -16.88456516	      7.94871634	     -9.01456920	      6.86835644	      2.45439605	     17.02926910	    -18.99058313	     -4.29817121	     48.68075134	     45.46569485	      0.00000000	      0.00000000	     10.89405713	    -10.34280242	     -6.29075513	     32.20956354	     46.17370857	      0.00000000	      0.00000000
     48.09142857	     -1.38300428	     -5.88852136	      1.87603112	      1.05469090	      0.93206336	      0.48921495	      9.21425970	      3.78423530	    -15.54784954	     16.49713137	     16.49713137	     10.63054186	      3.77889794	     -4.20558314	     23.60790849	    -15.33772614	      1.00717394	     61.21404869	     61.21404869	      8.73209802	    -16.87728918	      7.94728623	     -9.11169764	      6.89075924	      2.55641095	     18.87787685	    -19.51180308	     -4.61740469	     49.87472659	     45.44845388	      0.00000000	      0.00000000	      9.54994663	    -10.02206341	     -6.17004802	     31.37939634	     46.13401054	      0.00000000	      0.00000000
